<mxfile host="app.diagrams.net" modified="2022-08-20T11:36:33.950Z" agent="5.0 (Windows NT 10.0; Win64; x64) AppleWebKit/537.36 (KHTML, like Gecko) Chrome/104.0.0.0 Safari/537.36" etag="t9nMJhXr0RAYg2dRP8yT" version="20.2.5" type="github">
  <diagram id="3SxvyzHWOu3bx5kg2VzB" name="Page-1">
    <mxGraphModel dx="2336" dy="1197" grid="0" gridSize="10" guides="1" tooltips="1" connect="1" arrows="1" fold="1" page="1" pageScale="1" pageWidth="827" pageHeight="1169" math="0" shadow="0">
      <root>
        <mxCell id="0" />
        <mxCell id="1" parent="0" />
        <mxCell id="Jbk_3I9PqYl-XFh4dzE7-42" value="Loop: pour &lt;br&gt;&lt;div style=&quot;text-align: center;&quot;&gt;&lt;span style=&quot;background-color: initial;&quot;&gt;chaque&lt;/span&gt;&lt;/div&gt;&amp;nbsp;&lt;span style=&quot;text-align: center;&quot;&gt;Planification&lt;/span&gt;" style="shape=umlFrame;whiteSpace=wrap;html=1;rounded=0;shadow=0;glass=0;sketch=0;fontSize=15;fillColor=none;width=106;height=62;align=left;labelBackgroundColor=none;" vertex="1" parent="1">
          <mxGeometry x="349" y="375" width="1278" height="164" as="geometry" />
        </mxCell>
        <mxCell id="Jbk_3I9PqYl-XFh4dzE7-1" value="Diagramme&amp;nbsp; de séquence gerer planifications ressources" style="shape=umlFrame;whiteSpace=wrap;html=1;rounded=0;shadow=0;glass=0;sketch=0;fontSize=15;fillColor=none;width=417;height=26;" vertex="1" parent="1">
          <mxGeometry x="4.5" y="8" width="1647.5" height="970" as="geometry" />
        </mxCell>
        <mxCell id="Jbk_3I9PqYl-XFh4dzE7-2" value=":PlanificationRessource&lt;br&gt;Controler" style="shape=umlLifeline;perimeter=lifelinePerimeter;whiteSpace=wrap;html=1;container=1;collapsible=0;recursiveResize=0;outlineConnect=0;rounded=0;shadow=0;glass=0;sketch=0;fillColor=none;fontSize=15;fontColor=#CC6600;strokeColor=#CC6600;" vertex="1" parent="1">
          <mxGeometry x="575" y="65" width="160" height="905" as="geometry" />
        </mxCell>
        <mxCell id="Jbk_3I9PqYl-XFh4dzE7-3" value="" style="html=1;points=[];perimeter=orthogonalPerimeter;rounded=0;shadow=0;glass=0;sketch=0;fontSize=15;fillColor=none;" vertex="1" parent="Jbk_3I9PqYl-XFh4dzE7-2">
          <mxGeometry x="75" y="223" width="10" height="82" as="geometry" />
        </mxCell>
        <mxCell id="Jbk_3I9PqYl-XFh4dzE7-4" value="" style="shape=umlLifeline;participant=umlActor;perimeter=lifelinePerimeter;whiteSpace=wrap;html=1;container=1;collapsible=0;recursiveResize=0;verticalAlign=top;spacingTop=36;outlineConnect=0;fillColor=none;size=32;sketch=0;shadow=0;rounded=0;glass=0;" vertex="1" parent="1">
          <mxGeometry x="89" y="65" width="20" height="905" as="geometry" />
        </mxCell>
        <mxCell id="Jbk_3I9PqYl-XFh4dzE7-5" value="&lt;span style=&quot;color: rgb(0, 0, 0); font-family: Helvetica; font-size: 12px; font-style: normal; font-variant-ligatures: normal; font-variant-caps: normal; font-weight: 400; letter-spacing: normal; orphans: 2; text-align: center; text-indent: 0px; text-transform: none; widows: 2; word-spacing: 0px; -webkit-text-stroke-width: 0px; background-color: rgb(248, 249, 250); text-decoration-thickness: initial; text-decoration-style: initial; text-decoration-color: initial; float: none; display: inline !important;&quot;&gt;Administrateur&lt;/span&gt;" style="text;whiteSpace=wrap;html=1;" vertex="1" parent="1">
          <mxGeometry x="51" y="91" width="105" height="36" as="geometry" />
        </mxCell>
        <mxCell id="Jbk_3I9PqYl-XFh4dzE7-6" value=":PlanificationRessource&lt;br&gt;Service" style="shape=umlLifeline;perimeter=lifelinePerimeter;whiteSpace=wrap;html=1;container=1;collapsible=0;recursiveResize=0;outlineConnect=0;rounded=0;shadow=0;glass=0;sketch=0;fillColor=none;fontSize=15;fontColor=#CC6600;strokeColor=#CC6600;" vertex="1" parent="1">
          <mxGeometry x="829" y="65" width="160" height="905" as="geometry" />
        </mxCell>
        <mxCell id="Jbk_3I9PqYl-XFh4dzE7-7" value="" style="html=1;points=[];perimeter=orthogonalPerimeter;rounded=0;shadow=0;glass=0;sketch=0;fontSize=15;fillColor=none;" vertex="1" parent="Jbk_3I9PqYl-XFh4dzE7-6">
          <mxGeometry x="75" y="231" width="10" height="66" as="geometry" />
        </mxCell>
        <mxCell id="Jbk_3I9PqYl-XFh4dzE7-8" value="" style="shape=umlLifeline;participant=umlEntity;perimeter=lifelinePerimeter;whiteSpace=wrap;html=1;container=1;collapsible=0;recursiveResize=0;verticalAlign=top;spacingTop=36;outlineConnect=0;rounded=0;shadow=0;glass=0;sketch=0;fontSize=15;fillColor=none;fontColor=#CC6600;strokeColor=#CC6600;" vertex="1" parent="1">
          <mxGeometry x="1053" y="65" width="65" height="905" as="geometry" />
        </mxCell>
        <mxCell id="Jbk_3I9PqYl-XFh4dzE7-9" value="" style="html=1;points=[];perimeter=orthogonalPerimeter;rounded=0;shadow=0;glass=0;sketch=0;fontSize=15;fillColor=none;" vertex="1" parent="Jbk_3I9PqYl-XFh4dzE7-8">
          <mxGeometry x="27" y="239" width="10" height="45" as="geometry" />
        </mxCell>
        <mxCell id="Jbk_3I9PqYl-XFh4dzE7-10" value="&lt;span style=&quot;font-family: Helvetica; font-size: 15px; font-style: normal; font-variant-ligatures: normal; font-variant-caps: normal; font-weight: 400; letter-spacing: normal; orphans: 2; text-indent: 0px; text-transform: none; widows: 2; word-spacing: 0px; -webkit-text-stroke-width: 0px; background-color: rgb(248, 249, 250); text-decoration-thickness: initial; text-decoration-style: initial; text-decoration-color: initial; float: none; display: inline !important;&quot;&gt;Base de donnée&lt;br&gt;Livraison&lt;br&gt;&lt;/span&gt;" style="text;whiteSpace=wrap;html=1;fontSize=15;align=center;fillColor=default;fontColor=#CC6600;" vertex="1" parent="Jbk_3I9PqYl-XFh4dzE7-8">
          <mxGeometry x="-21" y="45" width="119" height="45" as="geometry" />
        </mxCell>
        <mxCell id="Jbk_3I9PqYl-XFh4dzE7-11" value="" style="shape=umlLifeline;participant=umlBoundary;perimeter=lifelinePerimeter;whiteSpace=wrap;html=1;container=1;collapsible=0;recursiveResize=0;verticalAlign=top;spacingTop=36;outlineConnect=0;rounded=0;shadow=0;glass=0;sketch=0;fontSize=15;fillColor=none;fontColor=#CC6600;strokeColor=#CC6600;" vertex="1" parent="1">
          <mxGeometry x="265" y="65" width="65" height="905" as="geometry" />
        </mxCell>
        <mxCell id="Jbk_3I9PqYl-XFh4dzE7-12" value="&lt;span style=&quot;font-family: Helvetica; font-size: 15px; font-style: normal; font-variant-ligatures: normal; font-variant-caps: normal; font-weight: 400; letter-spacing: normal; orphans: 2; text-indent: 0px; text-transform: none; widows: 2; word-spacing: 0px; -webkit-text-stroke-width: 0px; background-color: rgb(248, 249, 250); text-decoration-thickness: initial; text-decoration-style: initial; text-decoration-color: initial; float: none; display: inline !important;&quot;&gt;Interface IHM&lt;/span&gt;&lt;br style=&quot;font-family: Helvetica; font-size: 15px; font-style: normal; font-variant-ligatures: normal; font-variant-caps: normal; font-weight: 400; letter-spacing: normal; orphans: 2; text-indent: 0px; text-transform: none; widows: 2; word-spacing: 0px; -webkit-text-stroke-width: 0px; background-color: rgb(248, 249, 250); text-decoration-thickness: initial; text-decoration-style: initial; text-decoration-color: initial;&quot;&gt;&lt;span style=&quot;font-family: Helvetica; font-size: 15px; font-style: normal; font-variant-ligatures: normal; font-variant-caps: normal; font-weight: 400; letter-spacing: normal; orphans: 2; text-indent: 0px; text-transform: none; widows: 2; word-spacing: 0px; -webkit-text-stroke-width: 0px; background-color: rgb(248, 249, 250); text-decoration-thickness: initial; text-decoration-style: initial; text-decoration-color: initial; float: none; display: inline !important;&quot;&gt;PlanificationRessource&lt;/span&gt;" style="text;whiteSpace=wrap;html=1;fontSize=15;align=center;fillColor=default;fontColor=#CC6600;" vertex="1" parent="Jbk_3I9PqYl-XFh4dzE7-11">
          <mxGeometry x="-24" y="45" width="122" height="45" as="geometry" />
        </mxCell>
        <mxCell id="Jbk_3I9PqYl-XFh4dzE7-13" value="" style="html=1;points=[];perimeter=orthogonalPerimeter;rounded=0;shadow=0;glass=0;sketch=0;fontSize=15;fillColor=none;" vertex="1" parent="Jbk_3I9PqYl-XFh4dzE7-11">
          <mxGeometry x="27.5" y="228" width="10" height="336" as="geometry" />
        </mxCell>
        <mxCell id="Jbk_3I9PqYl-XFh4dzE7-14" value=":Employee&lt;br&gt;Controler" style="shape=umlLifeline;perimeter=lifelinePerimeter;whiteSpace=wrap;html=1;container=1;collapsible=0;recursiveResize=0;outlineConnect=0;rounded=0;shadow=0;glass=0;sketch=0;fillColor=none;fontSize=15;strokeColor=#0000CC;fontColor=#0000CC;" vertex="1" parent="1">
          <mxGeometry x="1161" y="65" width="130" height="905" as="geometry" />
        </mxCell>
        <mxCell id="Jbk_3I9PqYl-XFh4dzE7-15" value="" style="html=1;points=[];perimeter=orthogonalPerimeter;rounded=0;shadow=0;glass=0;sketch=0;fontSize=15;fillColor=none;" vertex="1" parent="Jbk_3I9PqYl-XFh4dzE7-14">
          <mxGeometry x="59" y="334" width="10" height="86" as="geometry" />
        </mxCell>
        <mxCell id="Jbk_3I9PqYl-XFh4dzE7-16" value="" style="shape=umlLifeline;participant=umlEntity;perimeter=lifelinePerimeter;whiteSpace=wrap;html=1;container=1;collapsible=0;recursiveResize=0;verticalAlign=top;spacingTop=36;outlineConnect=0;rounded=0;shadow=0;glass=0;sketch=0;fontSize=15;fillColor=none;strokeColor=#0000CC;" vertex="1" parent="1">
          <mxGeometry x="1560" y="60" width="65" height="905" as="geometry" />
        </mxCell>
        <mxCell id="Jbk_3I9PqYl-XFh4dzE7-17" value="Base de donnée&lt;br&gt;Personnel" style="text;whiteSpace=wrap;html=1;fontSize=15;align=center;fillColor=none;fontColor=#0000CC;labelBackgroundColor=none;" vertex="1" parent="Jbk_3I9PqYl-XFh4dzE7-16">
          <mxGeometry x="-33" y="45" width="127" height="48" as="geometry" />
        </mxCell>
        <mxCell id="Jbk_3I9PqYl-XFh4dzE7-18" value="" style="html=1;points=[];perimeter=orthogonalPerimeter;rounded=0;shadow=0;glass=0;sketch=0;fontSize=15;fillColor=none;" vertex="1" parent="Jbk_3I9PqYl-XFh4dzE7-16">
          <mxGeometry x="27.5" y="352.5" width="10" height="55" as="geometry" />
        </mxCell>
        <mxCell id="Jbk_3I9PqYl-XFh4dzE7-19" value=":Employee&lt;br&gt;Service" style="shape=umlLifeline;perimeter=lifelinePerimeter;whiteSpace=wrap;html=1;container=1;collapsible=0;recursiveResize=0;outlineConnect=0;rounded=0;shadow=0;glass=0;sketch=0;fillColor=none;fontSize=15;strokeColor=#0000CC;fontColor=#0000CC;" vertex="1" parent="1">
          <mxGeometry x="1367" y="65" width="130" height="905" as="geometry" />
        </mxCell>
        <mxCell id="Jbk_3I9PqYl-XFh4dzE7-20" value="" style="html=1;points=[];perimeter=orthogonalPerimeter;rounded=0;shadow=0;glass=0;sketch=0;fontSize=15;fillColor=none;" vertex="1" parent="Jbk_3I9PqYl-XFh4dzE7-19">
          <mxGeometry x="59" y="337" width="10" height="70" as="geometry" />
        </mxCell>
        <mxCell id="Jbk_3I9PqYl-XFh4dzE7-21" value="" style="edgeStyle=elbowEdgeStyle;fontSize=12;html=1;endArrow=blockThin;endFill=1;rounded=0;" edge="1" parent="1" source="Jbk_3I9PqYl-XFh4dzE7-4" target="Jbk_3I9PqYl-XFh4dzE7-13">
          <mxGeometry width="160" relative="1" as="geometry">
            <mxPoint x="102" y="300" as="sourcePoint" />
            <mxPoint x="240.18" y="301.9999999999998" as="targetPoint" />
            <Array as="points">
              <mxPoint x="171.68" y="302" />
              <mxPoint x="152.68" y="275" />
            </Array>
          </mxGeometry>
        </mxCell>
        <mxCell id="Jbk_3I9PqYl-XFh4dzE7-22" value="demander list &lt;br&gt;plannifications ressources" style="edgeLabel;html=1;align=center;verticalAlign=middle;resizable=0;points=[];fontSize=15;" vertex="1" connectable="0" parent="Jbk_3I9PqYl-XFh4dzE7-21">
          <mxGeometry x="-0.3952" relative="1" as="geometry">
            <mxPoint x="39" y="-23" as="offset" />
          </mxGeometry>
        </mxCell>
        <mxCell id="Jbk_3I9PqYl-XFh4dzE7-23" value="" style="edgeStyle=elbowEdgeStyle;fontSize=12;html=1;endArrow=blockThin;endFill=1;rounded=0;" edge="1" parent="1" source="Jbk_3I9PqYl-XFh4dzE7-44" target="Jbk_3I9PqYl-XFh4dzE7-3">
          <mxGeometry width="160" relative="1" as="geometry">
            <mxPoint x="566" y="237" as="sourcePoint" />
            <mxPoint x="671" y="443" as="targetPoint" />
            <Array as="points">
              <mxPoint x="595" y="297" />
              <mxPoint x="478" y="291" />
              <mxPoint x="460" y="304" />
            </Array>
          </mxGeometry>
        </mxCell>
        <mxCell id="Jbk_3I9PqYl-XFh4dzE7-24" value="query()" style="edgeLabel;html=1;align=center;verticalAlign=middle;resizable=0;points=[];fontSize=15;" vertex="1" connectable="0" parent="Jbk_3I9PqYl-XFh4dzE7-23">
          <mxGeometry x="-0.2194" y="3" relative="1" as="geometry">
            <mxPoint x="13" y="-9" as="offset" />
          </mxGeometry>
        </mxCell>
        <mxCell id="Jbk_3I9PqYl-XFh4dzE7-25" value="" style="edgeStyle=elbowEdgeStyle;fontSize=12;html=1;endArrow=blockThin;endFill=1;rounded=0;" edge="1" parent="1" source="Jbk_3I9PqYl-XFh4dzE7-3" target="Jbk_3I9PqYl-XFh4dzE7-7">
          <mxGeometry width="160" relative="1" as="geometry">
            <mxPoint x="428" y="355" as="sourcePoint" />
            <mxPoint x="588" y="355" as="targetPoint" />
            <Array as="points">
              <mxPoint x="787" y="308" />
              <mxPoint x="636" y="293" />
              <mxPoint x="561" y="322" />
            </Array>
          </mxGeometry>
        </mxCell>
        <mxCell id="Jbk_3I9PqYl-XFh4dzE7-26" value="getAllResourcePlanning()" style="edgeLabel;html=1;align=center;verticalAlign=middle;resizable=0;points=[];fontSize=15;" vertex="1" connectable="0" parent="Jbk_3I9PqYl-XFh4dzE7-25">
          <mxGeometry x="0.1239" relative="1" as="geometry">
            <mxPoint x="-14" y="-11" as="offset" />
          </mxGeometry>
        </mxCell>
        <mxCell id="Jbk_3I9PqYl-XFh4dzE7-27" value="" style="edgeStyle=elbowEdgeStyle;fontSize=12;html=1;endArrow=blockThin;endFill=1;rounded=0;" edge="1" parent="1" source="Jbk_3I9PqYl-XFh4dzE7-7" target="Jbk_3I9PqYl-XFh4dzE7-9">
          <mxGeometry width="160" relative="1" as="geometry">
            <mxPoint x="508" y="355" as="sourcePoint" />
            <mxPoint x="668" y="355" as="targetPoint" />
            <Array as="points">
              <mxPoint x="935" y="311" />
              <mxPoint x="903" y="313" />
              <mxPoint x="800" y="318" />
            </Array>
          </mxGeometry>
        </mxCell>
        <mxCell id="Jbk_3I9PqYl-XFh4dzE7-28" value="findAll()" style="edgeLabel;html=1;align=center;verticalAlign=middle;resizable=0;points=[];fontSize=15;" vertex="1" connectable="0" parent="Jbk_3I9PqYl-XFh4dzE7-27">
          <mxGeometry x="-0.3561" y="2" relative="1" as="geometry">
            <mxPoint x="23" y="-9" as="offset" />
          </mxGeometry>
        </mxCell>
        <mxCell id="Jbk_3I9PqYl-XFh4dzE7-29" value="liste des Planifications" style="html=1;verticalAlign=bottom;endArrow=open;dashed=1;endSize=8;rounded=0;fontSize=15;" edge="1" parent="1" source="Jbk_3I9PqYl-XFh4dzE7-9" target="Jbk_3I9PqYl-XFh4dzE7-7">
          <mxGeometry relative="1" as="geometry">
            <mxPoint x="840" y="342" as="sourcePoint" />
            <mxPoint x="702" y="342" as="targetPoint" />
            <Array as="points">
              <mxPoint x="982" y="346" />
            </Array>
          </mxGeometry>
        </mxCell>
        <mxCell id="Jbk_3I9PqYl-XFh4dzE7-30" value="liste des Planifications" style="html=1;verticalAlign=bottom;endArrow=open;dashed=1;endSize=8;rounded=0;fontSize=15;" edge="1" parent="1" source="Jbk_3I9PqYl-XFh4dzE7-7" target="Jbk_3I9PqYl-XFh4dzE7-3">
          <mxGeometry relative="1" as="geometry">
            <mxPoint x="692" y="347" as="sourcePoint" />
            <mxPoint x="511" y="347" as="targetPoint" />
            <Array as="points">
              <mxPoint x="792" y="357" />
            </Array>
          </mxGeometry>
        </mxCell>
        <mxCell id="Jbk_3I9PqYl-XFh4dzE7-31" value="liste des Planifications" style="html=1;verticalAlign=bottom;endArrow=open;dashed=1;endSize=8;rounded=0;fontSize=15;" edge="1" parent="1" source="Jbk_3I9PqYl-XFh4dzE7-3" target="Jbk_3I9PqYl-XFh4dzE7-44">
          <mxGeometry x="-0.0189" y="-3" relative="1" as="geometry">
            <mxPoint x="513" y="359" as="sourcePoint" />
            <mxPoint x="332" y="359" as="targetPoint" />
            <Array as="points">
              <mxPoint x="480" y="359" />
            </Array>
            <mxPoint as="offset" />
          </mxGeometry>
        </mxCell>
        <mxCell id="Jbk_3I9PqYl-XFh4dzE7-32" value="" style="edgeStyle=elbowEdgeStyle;fontSize=12;html=1;endArrow=blockThin;endFill=1;rounded=0;" edge="1" parent="1" source="Jbk_3I9PqYl-XFh4dzE7-44" target="Jbk_3I9PqYl-XFh4dzE7-15">
          <mxGeometry width="160" relative="1" as="geometry">
            <mxPoint x="346" y="410" as="sourcePoint" />
            <mxPoint x="1019.5000000000005" y="410" as="targetPoint" />
            <Array as="points">
              <mxPoint x="907" y="410" />
            </Array>
          </mxGeometry>
        </mxCell>
        <mxCell id="Jbk_3I9PqYl-XFh4dzE7-33" value="loadEmployeeAffecter(id)" style="edgeLabel;html=1;align=center;verticalAlign=middle;resizable=0;points=[];fontSize=15;" vertex="1" connectable="0" parent="Jbk_3I9PqYl-XFh4dzE7-32">
          <mxGeometry x="-0.2561" y="-3" relative="1" as="geometry">
            <mxPoint x="45" y="-15" as="offset" />
          </mxGeometry>
        </mxCell>
        <mxCell id="Jbk_3I9PqYl-XFh4dzE7-34" value="" style="fontSize=12;html=1;endArrow=blockThin;endFill=1;rounded=0;" edge="1" parent="1" source="Jbk_3I9PqYl-XFh4dzE7-15" target="Jbk_3I9PqYl-XFh4dzE7-20">
          <mxGeometry width="160" relative="1" as="geometry">
            <mxPoint x="951" y="389" as="sourcePoint" />
            <mxPoint x="1111" y="389" as="targetPoint" />
            <Array as="points">
              <mxPoint x="1297" y="416" />
            </Array>
          </mxGeometry>
        </mxCell>
        <mxCell id="Jbk_3I9PqYl-XFh4dzE7-35" value="getEmployee(id)" style="edgeLabel;html=1;align=center;verticalAlign=middle;resizable=0;points=[];fontSize=15;" vertex="1" connectable="0" parent="Jbk_3I9PqYl-XFh4dzE7-34">
          <mxGeometry x="-0.2535" y="1" relative="1" as="geometry">
            <mxPoint x="20" y="-11" as="offset" />
          </mxGeometry>
        </mxCell>
        <mxCell id="Jbk_3I9PqYl-XFh4dzE7-36" value="" style="edgeStyle=elbowEdgeStyle;fontSize=12;html=1;endArrow=blockThin;endFill=1;rounded=0;" edge="1" parent="1" source="Jbk_3I9PqYl-XFh4dzE7-20" target="Jbk_3I9PqYl-XFh4dzE7-18">
          <mxGeometry width="160" relative="1" as="geometry">
            <mxPoint x="1099" y="396" as="sourcePoint" />
            <mxPoint x="1259" y="396" as="targetPoint" />
            <Array as="points">
              <mxPoint x="1476" y="420" />
              <mxPoint x="1368" y="409" />
            </Array>
          </mxGeometry>
        </mxCell>
        <mxCell id="Jbk_3I9PqYl-XFh4dzE7-37" value="findById(id)" style="edgeLabel;html=1;align=center;verticalAlign=middle;resizable=0;points=[];fontSize=15;" vertex="1" connectable="0" parent="Jbk_3I9PqYl-XFh4dzE7-36">
          <mxGeometry x="-0.2685" y="1" relative="1" as="geometry">
            <mxPoint x="15" y="-11" as="offset" />
          </mxGeometry>
        </mxCell>
        <mxCell id="Jbk_3I9PqYl-XFh4dzE7-38" value="employee" style="html=1;verticalAlign=bottom;endArrow=open;dashed=1;endSize=8;rounded=0;fontSize=15;" edge="1" parent="1" source="Jbk_3I9PqYl-XFh4dzE7-18" target="Jbk_3I9PqYl-XFh4dzE7-20">
          <mxGeometry relative="1" as="geometry">
            <mxPoint x="1545" y="460" as="sourcePoint" />
            <mxPoint x="1255" y="462" as="targetPoint" />
            <Array as="points">
              <mxPoint x="1483" y="459" />
            </Array>
          </mxGeometry>
        </mxCell>
        <mxCell id="Jbk_3I9PqYl-XFh4dzE7-39" value="employee" style="html=1;verticalAlign=bottom;endArrow=open;dashed=1;endSize=8;rounded=0;fontSize=15;" edge="1" parent="1" source="Jbk_3I9PqYl-XFh4dzE7-20" target="Jbk_3I9PqYl-XFh4dzE7-15">
          <mxGeometry relative="1" as="geometry">
            <mxPoint x="1192" y="471" as="sourcePoint" />
            <mxPoint x="1025" y="471" as="targetPoint" />
            <Array as="points">
              <mxPoint x="1271" y="469" />
            </Array>
          </mxGeometry>
        </mxCell>
        <mxCell id="Jbk_3I9PqYl-XFh4dzE7-40" value="employee" style="html=1;verticalAlign=bottom;endArrow=open;dashed=1;endSize=8;rounded=0;fontSize=15;startArrow=none;" edge="1" parent="1" source="Jbk_3I9PqYl-XFh4dzE7-15" target="Jbk_3I9PqYl-XFh4dzE7-44">
          <mxGeometry x="0.1211" y="-4" relative="1" as="geometry">
            <mxPoint x="1015" y="480.9999999999998" as="sourcePoint" />
            <mxPoint x="346" y="396.5090909090909" as="targetPoint" />
            <Array as="points">
              <mxPoint x="998" y="482" />
            </Array>
            <mxPoint as="offset" />
          </mxGeometry>
        </mxCell>
        <mxCell id="Jbk_3I9PqYl-XFh4dzE7-41" value="liste des Planifications" style="html=1;verticalAlign=bottom;endArrow=open;dashed=1;endSize=8;rounded=0;fontSize=15;" edge="1" parent="1" source="Jbk_3I9PqYl-XFh4dzE7-13" target="Jbk_3I9PqYl-XFh4dzE7-4">
          <mxGeometry relative="1" as="geometry">
            <mxPoint x="237.5" y="577" as="sourcePoint" />
            <mxPoint x="98.32352941176464" y="577" as="targetPoint" />
            <Array as="points">
              <mxPoint x="196" y="589" />
            </Array>
          </mxGeometry>
        </mxCell>
        <mxCell id="Jbk_3I9PqYl-XFh4dzE7-43" value="&amp;lt;&amp;lt;component&amp;gt;&amp;gt;&lt;br&gt;PlanificationRessource" style="shape=umlLifeline;perimeter=lifelinePerimeter;whiteSpace=wrap;html=1;container=1;collapsible=0;recursiveResize=0;outlineConnect=0;rounded=0;shadow=0;glass=0;sketch=0;fillColor=none;fontSize=15;fontColor=#CC6600;strokeColor=#CC6600;" vertex="1" parent="1">
          <mxGeometry x="392" y="65" width="156" height="905" as="geometry" />
        </mxCell>
        <mxCell id="Jbk_3I9PqYl-XFh4dzE7-44" value="" style="html=1;points=[];perimeter=orthogonalPerimeter;" vertex="1" parent="Jbk_3I9PqYl-XFh4dzE7-43">
          <mxGeometry x="73" y="216" width="10" height="297" as="geometry" />
        </mxCell>
        <mxCell id="Jbk_3I9PqYl-XFh4dzE7-45" value="setAssignee(employee)" style="edgeStyle=orthogonalEdgeStyle;html=1;align=left;spacingLeft=2;endArrow=block;rounded=0;fontSize=15;" edge="1" parent="Jbk_3I9PqYl-XFh4dzE7-43" source="Jbk_3I9PqYl-XFh4dzE7-44" target="Jbk_3I9PqYl-XFh4dzE7-44">
          <mxGeometry relative="1" as="geometry">
            <mxPoint x="-59" y="421" as="sourcePoint" />
            <Array as="points">
              <mxPoint x="114" y="437" />
              <mxPoint x="114" y="465" />
            </Array>
            <mxPoint x="-46" y="452" as="targetPoint" />
          </mxGeometry>
        </mxCell>
        <mxCell id="Jbk_3I9PqYl-XFh4dzE7-46" value="" style="fontSize=12;html=1;endArrow=blockThin;endFill=1;rounded=0;" edge="1" parent="1" target="Jbk_3I9PqYl-XFh4dzE7-44">
          <mxGeometry width="160" relative="1" as="geometry">
            <mxPoint x="302.5" y="289" as="sourcePoint" />
            <mxPoint x="633" y="417" as="targetPoint" />
            <Array as="points">
              <mxPoint x="416" y="289" />
            </Array>
          </mxGeometry>
        </mxCell>
        <mxCell id="Jbk_3I9PqYl-XFh4dzE7-47" value="loadPlanifications()" style="edgeLabel;html=1;align=center;verticalAlign=middle;resizable=0;points=[];fontSize=15;" vertex="1" connectable="0" parent="Jbk_3I9PqYl-XFh4dzE7-46">
          <mxGeometry x="-0.0064" y="-3" relative="1" as="geometry">
            <mxPoint x="-4" y="-16" as="offset" />
          </mxGeometry>
        </mxCell>
        <mxCell id="Jbk_3I9PqYl-XFh4dzE7-48" value="&lt;span style=&quot;font-size: 15px;&quot;&gt;liste des Planifications&lt;/span&gt;" style="html=1;verticalAlign=bottom;endArrow=open;dashed=1;endSize=8;rounded=0;" edge="1" parent="1" source="Jbk_3I9PqYl-XFh4dzE7-44" target="Jbk_3I9PqYl-XFh4dzE7-13">
          <mxGeometry relative="1" as="geometry">
            <mxPoint x="552" y="479" as="sourcePoint" />
            <mxPoint x="302.5" y="565.0000000000005" as="targetPoint" />
            <Array as="points">
              <mxPoint x="405" y="569" />
            </Array>
          </mxGeometry>
        </mxCell>
        <mxCell id="Jbk_3I9PqYl-XFh4dzE7-49" value="ref" style="shape=umlFrame;whiteSpace=wrap;html=1;labelBackgroundColor=none;fontSize=15;" vertex="1" parent="1">
          <mxGeometry x="19" y="190" width="1550" height="44" as="geometry" />
        </mxCell>
        <mxCell id="Jbk_3I9PqYl-XFh4dzE7-50" value="&amp;lt;&amp;lt;Authentification&amp;gt;&amp;gt;" style="text;html=1;strokeColor=none;fillColor=none;align=center;verticalAlign=middle;whiteSpace=wrap;rounded=0;labelBackgroundColor=none;fontSize=15;fontColor=#000000;" vertex="1" parent="1">
          <mxGeometry x="812" y="193" width="60" height="30" as="geometry" />
        </mxCell>
        <mxCell id="Jbk_3I9PqYl-XFh4dzE7-51" value="ref" style="shape=umlFrame;whiteSpace=wrap;html=1;labelBackgroundColor=none;fontSize=15;" vertex="1" parent="1">
          <mxGeometry x="19" y="645" width="1550" height="55" as="geometry" />
        </mxCell>
        <mxCell id="Jbk_3I9PqYl-XFh4dzE7-52" value="ajouter accord planifications ressource" style="text;html=1;strokeColor=none;fillColor=none;align=center;verticalAlign=middle;whiteSpace=wrap;rounded=0;labelBackgroundColor=none;fontSize=15;fontColor=#000000;" vertex="1" parent="1">
          <mxGeometry x="709" y="653" width="283" height="30" as="geometry" />
        </mxCell>
        <mxCell id="Jbk_3I9PqYl-XFh4dzE7-53" value="ref" style="shape=umlFrame;whiteSpace=wrap;html=1;labelBackgroundColor=none;fontSize=15;" vertex="1" parent="1">
          <mxGeometry x="19" y="729" width="1550" height="55" as="geometry" />
        </mxCell>
        <mxCell id="Jbk_3I9PqYl-XFh4dzE7-54" value="modifier accord planifications ressource" style="text;html=1;strokeColor=none;fillColor=none;align=center;verticalAlign=middle;whiteSpace=wrap;rounded=0;labelBackgroundColor=none;fontSize=15;fontColor=#000000;" vertex="1" parent="1">
          <mxGeometry x="709" y="737" width="283" height="30" as="geometry" />
        </mxCell>
        <mxCell id="Jbk_3I9PqYl-XFh4dzE7-55" value="ref" style="shape=umlFrame;whiteSpace=wrap;html=1;labelBackgroundColor=none;fontSize=15;" vertex="1" parent="1">
          <mxGeometry x="19" y="810" width="1550" height="55" as="geometry" />
        </mxCell>
        <mxCell id="Jbk_3I9PqYl-XFh4dzE7-56" value="supprimer accord planifications ressource" style="text;html=1;strokeColor=none;fillColor=none;align=center;verticalAlign=middle;whiteSpace=wrap;rounded=0;labelBackgroundColor=none;fontSize=15;fontColor=#000000;" vertex="1" parent="1">
          <mxGeometry x="710.5" y="818" width="283" height="30" as="geometry" />
        </mxCell>
        <mxCell id="Jbk_3I9PqYl-XFh4dzE7-57" value="ref" style="shape=umlFrame;whiteSpace=wrap;html=1;labelBackgroundColor=none;fontSize=15;" vertex="1" parent="1">
          <mxGeometry x="19" y="889" width="1550" height="55" as="geometry" />
        </mxCell>
        <mxCell id="Jbk_3I9PqYl-XFh4dzE7-58" value="consulter accord planifications ressource" style="text;html=1;strokeColor=none;fillColor=none;align=center;verticalAlign=middle;whiteSpace=wrap;rounded=0;labelBackgroundColor=none;fontSize=15;fontColor=#000000;" vertex="1" parent="1">
          <mxGeometry x="709" y="897" width="283" height="30" as="geometry" />
        </mxCell>
      </root>
    </mxGraphModel>
  </diagram>
</mxfile>
